<svg xmlns="http://www.w3.org/2000/svg" xmlns:xlink="http://www.w3.org/1999/xlink" width="300" zoomAndPan="magnify" viewBox="0 0 224.87999 48.75" height="65" preserveAspectRatio="xMidYMid meet" version="1.0"><defs><g/><clipPath id="e4693b2606"><path d="M 27.328125 1.945312 L 46.730469 1.945312 L 46.730469 46.714844 L 27.328125 46.714844 Z M 27.328125 1.945312 " clip-rule="nonzero"/></clipPath><clipPath id="6bd6a05344"><path d="M 5.363281 2.019531 L 24.660156 2.019531 L 24.660156 46.789062 L 5.363281 46.789062 Z M 5.363281 2.019531 " clip-rule="nonzero"/></clipPath></defs><g clip-path="url(#e4693b2606)"><path fill="#ffffff" d="M 27.328125 7.253906 L 27.328125 1.964844 C 33.546875 1.964844 39.640625 1.953125 45.734375 1.996094 C 46.039062 1.996094 46.597656 2.472656 46.601562 2.734375 C 46.660156 6.496094 46.640625 10.261719 46.640625 14.292969 L 32.480469 14.292969 L 32.480469 34.007812 C 33.679688 33.230469 34.335938 32.421875 34.304688 30.964844 C 34.210938 26.675781 34.273438 22.378906 34.277344 18.085938 C 34.277344 17.488281 34.277344 16.886719 34.277344 16.269531 L 39.53125 16.269531 C 39.523438 17.1875 39.523438 18.105469 39.523438 19.023438 C 39.519531 20.007812 39.523438 20.988281 39.535156 21.972656 C 39.53125 21.800781 39.53125 22.957031 39.554688 23.164062 C 39.503906 25.417969 39.410156 27.582031 39.636719 29.707031 C 40.003906 33.152344 38.914062 35.632812 36.292969 37.90625 C 33.234375 40.554688 30.554688 43.644531 27.710938 46.542969 C 27.59375 46.472656 27.472656 46.402344 27.351562 46.332031 L 27.351562 9.046875 L 41.378906 9.046875 C 41.347656 8.363281 41.328125 7.871094 41.296875 7.253906 Z M 27.328125 7.253906 " fill-opacity="1" fill-rule="nonzero"/></g><g clip-path="url(#6bd6a05344)"><path fill="#ffffff" d="M 24.660156 7.320312 L 24.660156 2.039062 C 18.453125 2.039062 12.371094 2.027344 6.289062 2.070312 C 5.984375 2.074219 5.425781 2.546875 5.421875 2.808594 C 5.363281 6.5625 5.382812 10.320312 5.382812 14.347656 L 19.515625 14.347656 L 19.515625 34.027344 C 18.320312 33.246094 17.664062 32.441406 17.695312 30.988281 C 17.789062 26.703125 17.726562 22.417969 17.726562 18.132812 C 17.726562 17.535156 17.726562 16.933594 17.726562 16.320312 L 12.480469 16.320312 C 12.488281 17.234375 12.488281 18.152344 12.488281 19.066406 C 12.488281 20.046875 12.488281 21.03125 12.476562 22.011719 C 12.480469 21.839844 12.476562 22.996094 12.453125 23.199219 C 12.503906 25.453125 12.601562 27.609375 12.375 29.734375 C 12.007812 33.167969 13.09375 35.648438 15.710938 37.917969 C 18.765625 40.5625 21.4375 43.644531 24.277344 46.539062 C 24.394531 46.46875 24.515625 46.398438 24.636719 46.328125 L 24.636719 9.105469 L 10.632812 9.105469 C 10.664062 8.425781 10.6875 7.9375 10.714844 7.320312 Z M 24.660156 7.320312 " fill-opacity="1" fill-rule="nonzero"/></g><g fill="#ffffff" fill-opacity="1"><g transform="translate(59.673541, 31.004052)"><g><path d="M 11.59375 -14.34375 L 11.59375 -11.546875 L 7.78125 -11.546875 L 7.78125 0 L 4.296875 0 L 4.296875 -11.546875 L 0.484375 -11.546875 L 0.484375 -14.34375 Z M 11.59375 -14.34375 "/></g></g></g><g fill="#ffffff" fill-opacity="1"><g transform="translate(77.406755, 31.004052)"><g><path d="M 11.59375 -14.34375 L 11.59375 -11.546875 L 7.78125 -11.546875 L 7.78125 0 L 4.296875 0 L 4.296875 -11.546875 L 0.484375 -11.546875 L 0.484375 -14.34375 Z M 11.59375 -14.34375 "/></g></g></g><g fill="#ffffff" fill-opacity="1"><g transform="translate(95.139969, 31.004052)"><g/></g></g><g fill="#ffffff" fill-opacity="1"><g transform="translate(105.131541, 31.004052)"><g><path d="M 13.578125 -14.34375 L 8.609375 -4.734375 L 8.609375 0 L 5.109375 0 L 5.109375 -4.734375 L 0.140625 -14.34375 L 4.109375 -14.34375 L 6.890625 -8.34375 L 9.640625 -14.34375 Z M 13.578125 -14.34375 "/></g></g></g><g fill="#ffffff" fill-opacity="1"><g transform="translate(124.498867, 31.004052)"><g><path d="M 10.203125 -2.53125 L 4.84375 -2.53125 L 3.984375 0 L 0.328125 0 L 5.515625 -14.34375 L 9.5625 -14.34375 L 14.75 0 L 11.0625 0 Z M 9.296875 -5.234375 L 7.515625 -10.484375 L 5.765625 -5.234375 Z M 9.296875 -5.234375 "/></g></g></g><g fill="#ffffff" fill-opacity="1"><g transform="translate(145.214351, 31.004052)"><g><path d="M 4.984375 -2.859375 L 11.15625 -2.859375 L 11.15625 0 L 1.015625 0 L 1.015625 -2.65625 L 7.15625 -11.484375 L 1.015625 -11.484375 L 1.015625 -14.34375 L 11.15625 -14.34375 L 11.15625 -11.6875 Z M 4.984375 -2.859375 "/></g></g></g><g fill="#ffffff" fill-opacity="1"><g transform="translate(163.049691, 31.004052)"><g><path d="M 4.765625 -14.34375 L 4.765625 0 L 1.265625 0 L 1.265625 -14.34375 Z M 4.765625 -14.34375 "/></g></g></g><g fill="#ffffff" fill-opacity="1"><g transform="translate(174.73666, 31.004052)"><g><path d="M 4.765625 -2.703125 L 9.34375 -2.703125 L 9.34375 0 L 1.265625 0 L 1.265625 -14.34375 L 4.765625 -14.34375 Z M 4.765625 -2.703125 "/></g></g></g><g fill="#ffffff" fill-opacity="1"><g transform="translate(190.141243, 31.004052)"><g><path d="M 4.765625 -14.34375 L 4.765625 0 L 1.265625 0 L 1.265625 -14.34375 Z M 4.765625 -14.34375 "/></g></g></g><g fill="#ffffff" fill-opacity="1"><g transform="translate(201.828212, 31.004052)"><g><path d="M 17.515625 -14.34375 L 17.515625 0 L 14.015625 0 L 14.015625 -8.609375 L 10.8125 0 L 7.984375 0 L 4.765625 -8.625 L 4.765625 0 L 1.265625 0 L 1.265625 -14.34375 L 5.390625 -14.34375 L 9.421875 -4.421875 L 13.40625 -14.34375 Z M 17.515625 -14.34375 "/></g></g></g></svg>