<svg xmlns="http://www.w3.org/2000/svg" xmlns:xlink="http://www.w3.org/1999/xlink" width="48" zoomAndPan="magnify" viewBox="0 0 36 36.000001" height="48" preserveAspectRatio="xMidYMid meet" version="1.0"><defs><clipPath id="3a94e3d4d2"><path d="M 2.238281 0.0585938 L 17.390625 0.0585938 L 17.390625 35.027344 L 2.238281 35.027344 Z M 2.238281 0.0585938 " clip-rule="nonzero"/></clipPath><clipPath id="8710cc9a9e"><path d="M 18.578125 0 L 33.902344 0 L 33.902344 35.027344 L 18.578125 35.027344 Z M 18.578125 0 " clip-rule="nonzero"/></clipPath></defs><g clip-path="url(#3a94e3d4d2)"><path fill="#ffffff" d="M 17.390625 4.21875 L 17.390625 0.0703125 C 12.515625 0.0703125 7.738281 0.0625 2.964844 0.09375 C 2.722656 0.0976562 2.285156 0.46875 2.28125 0.671875 C 2.238281 3.625 2.25 6.574219 2.25 9.734375 L 13.351562 9.734375 L 13.351562 25.191406 C 12.414062 24.578125 11.898438 23.945312 11.921875 22.804688 C 11.996094 19.441406 11.945312 16.074219 11.945312 12.710938 C 11.945312 12.238281 11.945312 11.769531 11.945312 11.285156 L 7.824219 11.285156 C 7.832031 12.003906 7.832031 12.722656 7.832031 13.441406 C 7.832031 14.214844 7.832031 14.984375 7.824219 15.753906 C 7.824219 15.621094 7.824219 16.527344 7.804688 16.6875 C 7.847656 18.457031 7.921875 20.152344 7.742188 21.820312 C 7.453125 24.515625 8.308594 26.464844 10.363281 28.246094 C 12.761719 30.324219 14.863281 32.746094 17.089844 35.015625 C 17.183594 34.960938 17.277344 34.90625 17.371094 34.851562 L 17.371094 5.621094 L 6.375 5.621094 C 6.402344 5.085938 6.417969 4.699219 6.441406 4.21875 Z M 17.390625 4.21875 " fill-opacity="1" fill-rule="nonzero"/></g><g clip-path="url(#8710cc9a9e)"><path fill="#ffffff" d="M 18.578125 4.171875 L 18.578125 0.0195312 C 23.460938 0.0195312 28.246094 0.0078125 33.027344 0.0429688 C 33.265625 0.046875 33.707031 0.417969 33.710938 0.621094 C 33.753906 3.578125 33.742188 6.53125 33.742188 9.699219 L 22.625 9.699219 L 22.625 25.175781 C 23.5625 24.5625 24.078125 23.929688 24.054688 22.785156 C 23.980469 19.417969 24.03125 16.046875 24.03125 12.675781 C 24.03125 12.207031 24.03125 11.734375 24.03125 11.25 L 28.160156 11.25 C 28.152344 11.96875 28.152344 12.691406 28.152344 13.410156 C 28.148438 14.183594 28.152344 14.957031 28.160156 15.726562 C 28.160156 15.59375 28.160156 16.5 28.179688 16.660156 C 28.136719 18.433594 28.0625 20.128906 28.242188 21.800781 C 28.53125 24.503906 27.675781 26.453125 25.617188 28.234375 C 23.214844 30.316406 21.113281 32.742188 18.878906 35.015625 C 18.785156 34.960938 18.691406 34.90625 18.597656 34.851562 L 18.597656 5.578125 L 29.609375 5.578125 C 29.585938 5.042969 29.566406 4.65625 29.546875 4.171875 Z M 18.578125 4.171875 " fill-opacity="1" fill-rule="nonzero"/></g></svg>